<?xml version="1.0" encoding="iso-8859-1"?>
<!-- Generator: Adobe Illustrator 19.0.0, SVG Export Plug-In . SVG Version: 6.00 Build 0)  -->
<svg version="1.1" id="Capa_1" xmlns="http://www.w3.org/2000/svg" xmlns:xlink="http://www.w3.org/1999/xlink" x="0px" y="0px"
	 viewBox="0 0 512 512" style="enable-background:new 0 0 512 512;" xml:space="preserve">
<g>
	<g>
		<path d="M436.991,75.046c-48.344-48.345-112.622-74.97-180.992-74.97c-59.432,0-117.011,20.702-162.734,58.391L42.018,7.22
			c-5.117-5.123-12.196-7.723-19.421-7.139C15.376,0.666,8.789,4.409,4.521,10.349c-6.923,9.637-5.492,23.557,3.33,32.378
			l50.577,50.577c-37.697,45.733-58.39,103.268-58.39,162.735c0,68.37,26.625,132.648,74.97,180.992
			C123.352,485.376,187.629,512,255.999,512s132.647-26.625,180.992-74.97c48.345-48.344,74.97-112.622,74.97-180.992
			S485.336,123.39,436.991,75.046z M18.457,32.12c-3.624-3.625-4.394-9.343-1.753-13.02c1.718-2.391,4.241-3.836,7.105-4.068
			c2.821-0.228,5.597,0.787,7.599,2.792l99.892,99.892c17.916,17.916,41.49,29.379,68.59,33.501
			c-20.669,11.073-37.654,28.044-48.717,48.684c-4.126-27.088-15.587-50.652-33.497-68.561L18.457,32.12z M426.385,426.424
			C380.873,471.936,320.362,497,255.999,497c-64.363,0-124.874-25.064-170.386-70.576c-45.512-45.512-70.576-106.023-70.576-170.386
			c0-55.498,19.152-109.203,54.055-152.07l25.885,25.886c-59.622,75.872-58.051,183.463,4.384,257.677
			c1.483,1.763,3.606,2.672,5.743,2.672c1.704,0,3.418-0.578,4.824-1.761c3.17-2.667,3.578-7.398,0.911-10.567
			c-57.461-68.303-59.278-167.11-5.167-237.326l1.396,1.396c17.438,17.437,27.919,41.194,30.312,68.702
			c0.186,2.141,0.476,4.312,0.861,6.453c0.587,3.263,1.438,6.513,2.524,9.667c-0.445,1.76-0.866,3.529-1.232,5.32
			c-0.831,4.058,1.786,8.021,5.844,8.851c0.507,0.104,1.013,0.154,1.511,0.154c3.488,0,6.613-2.447,7.34-5.998
			c8.172-39.936,39.158-71.503,78.94-80.421c4.042-0.906,6.584-4.917,5.678-8.959c-0.906-4.042-4.919-6.584-8.959-5.678
			c-1.066,0.239-2.122,0.507-3.177,0.774c-3.154-1.084-6.387-1.941-9.649-2.529c-2.139-0.385-4.31-0.675-6.453-0.861
			c-27.509-2.393-51.266-12.875-68.703-30.312l-1.396-1.396c70.216-54.111,169.023-52.295,237.326,5.167
			c1.406,1.183,3.12,1.761,4.824,1.761c2.137,0,4.26-0.909,5.743-2.672c2.667-3.17,2.259-7.901-0.911-10.567
			c-74.215-62.435-181.807-64.006-257.678-4.383l-25.889-25.89c42.86-34.897,96.609-54.052,152.075-54.052
			c64.363,0,124.874,25.064,170.386,70.576c45.512,45.512,70.576,106.022,70.576,170.386S471.897,380.912,426.385,426.424z"/>
	</g>
</g>
<g>
	<g>
		<path d="M412.637,124.545c-2.666-3.169-7.398-3.578-10.567-0.911c-3.17,2.667-3.578,7.398-0.911,10.567
			c30.423,36.164,46.126,82.183,44.217,129.58c-1.921,47.677-21.574,92.529-55.339,126.294s-78.617,53.418-126.294,55.339
			c-47.396,1.907-93.417-13.793-129.58-44.216c-3.169-2.666-7.9-2.258-10.567,0.911c-2.667,3.169-2.259,7.901,0.911,10.567
			c36.908,31.049,83.319,47.894,131.501,47.894c2.774,0,5.555-0.056,8.339-0.168c51.454-2.073,99.859-23.282,136.297-59.72
			s57.647-84.843,59.721-136.297C462.423,213.24,445.474,163.577,412.637,124.545z"/>
	</g>
</g>
<g>
	<g>
		<path d="M240.297,293.058c-10.333-22.039-24.322-40.388-39.392-51.667c-2.217-1.661-5.169-1.963-7.678-0.787
			c-2.508,1.176-4.164,3.639-4.306,6.405c-0.967,18.799,4.19,41.289,14.522,63.326c10.333,22.039,24.322,40.388,39.392,51.667
			c1.321,0.989,2.902,1.496,4.495,1.496c1.082,0,2.168-0.234,3.183-0.709c2.508-1.176,4.164-3.638,4.306-6.405
			C255.786,337.585,250.629,315.096,240.297,293.058z M217.025,303.967c-6.036-12.875-10.172-26.15-12.057-38.323
			c8.152,9.235,15.711,20.904,21.748,33.78c6.036,12.875,10.172,26.15,12.057,38.323
			C230.621,328.512,223.062,316.843,217.025,303.967z"/>
	</g>
</g>
<g>
	<g>
		<path d="M307.616,134.379c-0.718-2.476-2.657-4.41-5.135-5.121c-2.477-0.711-5.146-0.1-7.068,1.619
			c-12.64,11.305-22.791,28.646-28.583,48.829s-6.383,40.268-1.663,56.555c0.718,2.476,2.657,4.41,5.135,5.121
			c0.682,0.196,1.377,0.291,2.068,0.291c1.821,0,3.607-0.664,5-1.91c12.639-11.304,22.79-28.645,28.583-48.829
			C311.745,170.75,312.336,150.665,307.616,134.379z M291.536,186.796c-3.297,11.488-8.305,22.08-14.356,30.624
			c-0.6-10.453,0.772-22.089,4.069-33.576s8.304-22.079,14.356-30.623C296.205,163.673,294.833,175.308,291.536,186.796z"/>
	</g>
</g>
<g>
	<g>
		<path d="M390.786,246.062c-1.52-2.317-4.189-3.61-6.95-3.357c-18.746,1.699-40.281,9.985-60.637,23.33
			c-20.356,13.344-36.543,29.788-45.579,46.301c-1.33,2.43-1.211,5.395,0.307,7.712c1.394,2.126,3.759,3.388,6.271,3.388
			c0.225,0,0.452-0.01,0.679-0.031c18.746-1.699,40.28-9.985,60.637-23.33c20.357-13.344,36.544-29.788,45.579-46.301
			C392.423,251.344,392.304,248.379,390.786,246.062z M337.291,287.53c-11.893,7.797-24.449,13.768-36.233,17.354
			c7.989-9.376,18.473-18.509,30.366-26.305c11.893-7.796,24.449-13.767,36.233-17.354
			C359.668,270.601,349.184,279.734,337.291,287.53z"/>
	</g>
</g>
<g>
	<g>
		<path d="M151.912,269.601c-0.779-4.068-4.708-6.736-8.776-5.956c-4.068,0.779-6.735,4.708-5.956,8.776
			c2.016,10.533-1.819,19.552-5.879,29.101c-5.536,13.018-11.811,27.774-1.727,45.857c1.373,2.461,3.926,3.849,6.557,3.849
			c1.236,0,2.49-0.306,3.646-0.951c3.618-2.017,4.915-6.585,2.897-10.203c-6.204-11.125-3.277-19.261,2.43-32.683
			C149.643,296.717,154.787,284.62,151.912,269.601z"/>
	</g>
</g>
<g>
	<g>
		<path d="M347.572,374.7c-10.679-0.979-18.284-7.161-26.335-13.706c-10.977-8.924-23.417-19.038-43.588-14.355
			c-4.035,0.937-6.546,4.968-5.609,9.002s4.964,6.545,9.002,5.609c12.409-2.883,19.415,2.183,30.732,11.383
			c9.001,7.315,19.202,15.608,34.429,17.004c0.233,0.021,0.464,0.032,0.693,0.032c3.833,0,7.103-2.924,7.46-6.816
			C354.734,378.728,351.697,375.078,347.572,374.7z"/>
	</g>
</g>
<g>
	<g>
		<path d="M361.51,151.744c-1.237-3.953-5.448-6.152-9.398-4.917c-3.953,1.238-6.154,5.445-4.917,9.398
			c3.575,11.42-0.198,15.657-6.45,22.678c-5.709,6.411-12.813,14.39-12.683,28.439c0.038,4.118,3.388,7.431,7.498,7.431
			c0.023,0,0.047,0,0.071,0c4.142-0.038,7.469-3.427,7.43-7.569c-0.076-8.26,3.879-12.702,8.887-18.325
			C358.932,181.035,367.624,171.274,361.51,151.744z"/>
	</g>
</g>
<g>
	<g>
		<path d="M239.238,215.736c-4.491-3.39-4.285-4.848-3.604-9.68c0.679-4.823,1.706-12.111-4.189-19.934
			c-2.494-3.308-7.195-3.969-10.504-1.476c-3.308,2.493-3.968,7.196-1.476,10.503c2.072,2.749,1.912,4.578,1.315,8.814
			c-0.843,5.987-2.118,15.033,9.42,23.744c1.353,1.021,2.939,1.515,4.513,1.515c2.272,0,4.517-1.029,5.992-2.981
			C243.201,222.935,242.544,218.232,239.238,215.736z"/>
	</g>
</g>
<g>
	<g>
		<path d="M279.685,105.131c-2.271-3.465-6.921-4.432-10.384-2.161c-4.705,3.085-6.009,2.4-10.329,0.13
			c-4.312-2.265-10.827-5.688-20.18-2.776c-3.955,1.232-6.162,5.437-4.93,9.391c1.232,3.956,5.438,6.162,9.391,4.931
			c3.286-1.024,4.954-0.257,8.742,1.733c3.062,1.609,7.02,3.689,12.112,3.689c3.806,0,8.246-1.163,13.417-4.553
			C280.988,113.244,281.956,108.595,279.685,105.131z"/>
	</g>
</g>
<g>
	<g>
		<path d="M259.694,398.574c-2.271-3.464-6.921-4.432-10.384-2.161c-4.705,3.085-6.009,2.4-10.329,0.13
			c-4.312-2.265-10.827-5.688-20.18-2.776c-3.955,1.232-6.162,5.437-4.93,9.391c1.232,3.955,5.437,6.16,9.391,4.93
			c3.287-1.024,4.954-0.257,8.742,1.733c3.062,1.609,7.02,3.689,12.112,3.689c3.806,0,8.246-1.163,13.417-4.552
			C260.997,406.687,261.965,402.038,259.694,398.574z"/>
	</g>
</g>
<g>
	<g>
		<path d="M193.085,348.998c-4.581-3.268-4.415-4.731-3.865-9.579c0.549-4.84,1.378-12.153-4.727-19.814
			c-2.581-3.24-7.3-3.773-10.539-1.192c-3.239,2.582-3.772,7.3-1.191,10.54c2.145,2.692,2.035,4.524,1.553,8.775
			c-0.681,6.007-1.711,15.085,10.058,23.481c1.32,0.942,2.842,1.395,4.349,1.395c2.342,0,4.648-1.093,6.112-3.145
			C197.241,356.087,196.457,351.403,193.085,348.998z"/>
	</g>
</g>
<g>
	<g>
		<path d="M117.703,215.224c-4.132-0.219-7.667,2.956-7.886,7.093c-0.183,3.437-1.481,4.734-4.663,7.594
			c-4.497,4.041-11.292,10.147-8.063,24.238c0.796,3.473,3.885,5.825,7.303,5.825c0.555,0,1.119-0.062,1.682-0.191
			c4.038-0.925,6.561-4.948,5.635-8.986c-1.257-5.484-0.162-6.469,3.468-9.73c3.623-3.255,9.098-8.175,9.616-17.957
			C125.015,218.974,121.839,215.443,117.703,215.224z"/>
	</g>
</g>
<g>
	<g>
		<path d="M397.185,312.912c-3.097-2.752-7.837-2.471-10.588,0.625c-2.287,2.573-4.111,2.777-8.381,3.028
			c-6.035,0.354-15.156,0.888-21.42,13.917c-1.795,3.733-0.224,8.214,3.509,10.009c1.048,0.504,2.155,0.742,3.245,0.742
			c2.792,0,5.474-1.567,6.765-4.252c2.438-5.071,3.908-5.157,8.779-5.443c4.861-0.284,12.209-0.715,18.716-8.038
			C400.561,320.404,400.282,315.663,397.185,312.912z"/>
	</g>
</g>
<g>
	<g>
		<path d="M405.752,192.25c-3.097-2.752-7.837-2.471-10.588,0.625c-2.286,2.573-4.11,2.777-8.381,3.028
			c-6.035,0.354-15.156,0.889-21.42,13.918c-1.795,3.733-0.224,8.214,3.509,10.009c1.048,0.504,2.155,0.742,3.245,0.742
			c2.792,0,5.474-1.567,6.765-4.252c2.438-5.071,3.908-5.157,8.779-5.443c4.862-0.285,12.21-0.716,18.716-8.039
			C409.128,199.742,408.849,195.001,405.752,192.25z"/>
	</g>
</g>
<g>
	<g>
		<path d="M272.158,275.746l-8.858-16.277c-1.979-3.638-6.534-4.983-10.172-3.002c-3.638,1.98-4.983,6.534-3.002,10.173
			l8.858,16.277c1.36,2.5,3.936,3.916,6.594,3.916c1.211,0,2.44-0.294,3.578-0.914C272.794,283.939,274.139,279.385,272.158,275.746
			z"/>
	</g>
</g>
<g>
	<g>
		<path d="M308.963,248.037c-2.012-3.621-6.578-4.927-10.198-2.914l-6.426,3.57c-3.621,2.011-4.926,6.578-2.914,10.198
			c1.371,2.467,3.928,3.859,6.563,3.859c1.232,0,2.482-0.304,3.635-0.945l6.426-3.57
			C309.67,256.224,310.975,251.657,308.963,248.037z"/>
	</g>
</g>
<g>
	<g>
		<path d="M336.809,115.238l-3.57-6.426c-2.011-3.621-6.576-4.925-10.199-2.914c-3.621,2.012-4.925,6.578-2.914,10.198l3.57,6.426
			c1.371,2.467,3.927,3.859,6.563,3.859c1.232,0,2.482-0.304,3.636-0.945C337.516,123.424,338.82,118.858,336.809,115.238z"/>
	</g>
</g>
<g>
	<g>
		<path d="M394.137,169.038l-0.714-9.996c-0.295-4.132-3.883-7.24-8.015-6.947c-4.132,0.295-7.242,3.884-6.947,8.015l0.714,9.996
			c0.282,3.95,3.574,6.966,7.473,6.966c0.179,0,0.36-0.006,0.542-0.019C391.322,176.758,394.432,173.169,394.137,169.038z"/>
	</g>
</g>
<g>
	<g>
		<path d="M420.71,237.37l-3.57-8.568c-1.593-3.824-5.985-5.632-9.808-4.039s-5.631,5.984-4.038,9.808l3.57,8.568
			c1.2,2.881,3.988,4.617,6.926,4.617c0.961,0,1.939-0.186,2.882-0.579C420.495,245.585,422.303,241.194,420.71,237.37z"/>
	</g>
</g>
<g>
	<g>
		<path d="M416.279,273.625c-3.257-2.559-7.972-1.994-10.531,1.264l-7.854,9.996c-2.559,3.257-1.993,7.972,1.264,10.531
			c1.374,1.079,3.007,1.603,4.629,1.603c2.221,0,4.422-0.984,5.902-2.867l7.854-9.996
			C420.102,280.899,419.536,276.184,416.279,273.625z"/>
	</g>
</g>
<g>
	<g>
		<path d="M338.155,333.267l-3.57-4.284c-2.652-3.183-7.382-3.612-10.563-0.96c-3.182,2.652-3.612,7.381-0.96,10.563l3.57,4.284
			c1.484,1.78,3.617,2.699,5.766,2.699c1.693,0,3.396-0.57,4.797-1.739C340.377,341.178,340.807,336.449,338.155,333.267z"/>
	</g>
</g>
<g>
	<g>
		<path d="M386.938,358.99c-1.852-3.705-6.357-5.207-10.062-3.355l-5.712,2.856c-3.705,1.853-5.207,6.357-3.354,10.062
			c1.314,2.628,3.962,4.148,6.714,4.148c1.127,0,2.271-0.255,3.348-0.793l5.712-2.856
			C387.289,367.199,388.791,362.695,386.938,358.99z"/>
	</g>
</g>
<g>
	<g>
		<path d="M303.107,382.157l-9.282-4.998c-3.646-1.965-8.196-0.6-10.159,3.048c-1.964,3.647-0.599,8.196,3.048,10.159l9.282,4.998
			c1.131,0.609,2.349,0.898,3.549,0.898c2.67,0,5.255-1.43,6.61-3.946C308.119,388.669,306.754,384.12,303.107,382.157z"/>
	</g>
</g>
<g>
	<g>
		<path d="M227.072,372.586c-0.259-4.134-3.829-7.275-7.953-7.018l-11.423,0.714c-4.134,0.258-7.276,3.819-7.018,7.953
			c0.249,3.975,3.55,7.032,7.478,7.032c0.158,0,0.316-0.005,0.475-0.015l11.423-0.714C224.188,380.28,227.33,376.72,227.072,372.586
			z"/>
	</g>
</g>
<g>
	<g>
		<path d="M164.64,380.128l-2.856-9.281c-1.218-3.959-5.416-6.18-9.374-4.962c-3.959,1.218-6.181,5.415-4.963,9.374l2.856,9.281
			c0.992,3.224,3.96,5.296,7.166,5.296c0.73,0,1.474-0.108,2.208-0.334C163.636,388.284,165.858,384.087,164.64,380.128z"/>
	</g>
</g>
<g>
	<g>
		<path d="M188.612,386.271c-4.135-0.238-7.684,2.912-7.927,7.047l-0.714,12.137c-0.243,4.135,2.912,7.684,7.047,7.927
			c0.15,0.009,0.299,0.013,0.447,0.013c3.941,0,7.246-3.075,7.48-7.06l0.714-12.137
			C195.902,390.064,192.747,386.514,188.612,386.271z"/>
	</g>
</g>
<g>
	<g>
		<path d="M299.834,411.823c-1.852-3.705-6.357-5.206-10.063-3.354l-8.567,4.284c-3.705,1.853-5.206,6.357-3.354,10.062
			c1.314,2.628,3.963,4.147,6.714,4.147c1.127,0,2.272-0.255,3.349-0.793l8.567-4.284
			C300.185,420.032,301.686,415.528,299.834,411.823z"/>
	</g>
</g>
<g>
	<g>
		<path d="M172.464,261.313c-4.142,0-7.5,3.358-7.5,7.5v6.426c0,4.142,3.358,7.5,7.5,7.5c4.142,0,7.5-3.358,7.5-7.5v-6.426
			C179.964,264.671,176.606,261.313,172.464,261.313z"/>
	</g>
</g>
<g>
	<g>
		<path d="M118.208,283.518c-2.131-3.552-6.738-4.704-10.29-2.572l-10.709,6.426c-3.552,2.131-4.704,6.738-2.572,10.29
			c1.406,2.344,3.89,3.642,6.438,3.642c1.313,0,2.644-0.345,3.852-1.07l10.709-6.426C119.188,291.677,120.34,287.07,118.208,283.518
			z"/>
	</g>
</g>
<g>
	<g>
		<path d="M117.616,183.366c-2.928-2.929-7.677-2.929-10.606,0l-5.712,5.712c-2.929,2.929-2.929,7.678,0,10.607
			c1.464,1.465,3.383,2.197,5.303,2.197c1.919,0,3.839-0.732,5.303-2.197l5.712-5.712
			C120.545,191.044,120.545,186.295,117.616,183.366z"/>
	</g>
</g>
<g>
	<g>
		<path d="M205.775,98.543l-11.424-0.714c-4.123-0.26-7.694,2.883-7.953,7.017c-0.258,4.134,2.883,7.695,7.018,7.953l11.424,0.714
			c0.159,0.01,0.317,0.015,0.475,0.015c3.928,0,7.229-3.058,7.478-7.032C213.051,102.362,209.909,98.801,205.775,98.543z"/>
	</g>
</g>
<g>
	<g>
		<path d="M202.919,211.598l-4.284-9.996c-1.632-3.808-6.042-5.57-9.848-3.939c-3.808,1.632-5.571,6.041-3.939,9.848l4.284,9.995
			c1.219,2.844,3.987,4.548,6.897,4.548c0.986,0,1.988-0.196,2.951-0.608C202.788,219.814,204.551,215.405,202.919,211.598z"/>
	</g>
</g>
<g>
	<g>
		<path d="M265.05,140.35c-2.929-2.929-7.678-2.928-10.606,0.001l-2.855,2.856c-2.929,2.929-2.928,7.678,0.001,10.606
			c1.463,1.464,3.382,2.196,5.302,2.196c1.919,0,3.839-0.733,5.304-2.197l2.855-2.856C267.98,148.027,267.979,143.278,265.05,140.35
			z"/>
	</g>
</g>
<g>
	<g>
		<path d="M347.789,230.726c-1.714-3.771-6.162-5.438-9.931-3.724l-7.854,3.57c-3.771,1.714-5.438,6.16-3.724,9.931
			c1.257,2.764,3.982,4.398,6.832,4.398c1.038,0,2.093-0.217,3.099-0.674l7.854-3.57
			C347.836,238.943,349.503,234.497,347.789,230.726z"/>
	</g>
</g>
<g>
	<g>
		<path d="M335.074,146.795l-1.428-3.57c-1.539-3.846-5.902-5.717-9.749-4.178c-3.846,1.538-5.717,5.903-4.179,9.749l1.428,3.57
			c1.173,2.933,3.989,4.717,6.966,4.717c0.927-0.001,1.87-0.174,2.783-0.539C334.741,155.006,336.612,150.641,335.074,146.795z"/>
	</g>
</g>
<g>
	<g>
		<path d="M305.087,92.532l-1.428-3.57c-1.539-3.845-5.901-5.717-9.75-4.177c-3.846,1.539-5.716,5.904-4.177,9.749l1.428,3.57
			c1.173,2.932,3.989,4.716,6.966,4.716c0.927,0,1.87-0.173,2.784-0.539C304.756,100.742,306.626,96.377,305.087,92.532z"/>
	</g>
</g>
<g>
	<g>
		<path d="M373.854,124.074l-3.57-4.284c-2.652-3.183-7.382-3.612-10.563-0.96c-3.182,2.652-3.612,7.381-0.96,10.563l3.57,4.284
			c1.483,1.78,3.617,2.699,5.766,2.699c1.693,0,3.396-0.57,4.797-1.739C376.076,131.985,376.506,127.256,373.854,124.074z"/>
	</g>
</g>
<g>
</g>
<g>
</g>
<g>
</g>
<g>
</g>
<g>
</g>
<g>
</g>
<g>
</g>
<g>
</g>
<g>
</g>
<g>
</g>
<g>
</g>
<g>
</g>
<g>
</g>
<g>
</g>
<g>
</g>
</svg>
