<svg id="Layer_1" enable-background="new 0 0 256 256" height="512" viewBox="0 0 256 256" width="512" xmlns="http://www.w3.org/2000/svg"><g><g fill="#13bf6d"><path d="m154.216 102.851s-14.679.879-23.355-7.199c4.814-8.151 2.131-14.026-2.865-19.021 4.996 4.996 10.871 7.679 19.021 2.865 8.078 8.676 7.199 23.355 7.199 23.355z"/><path d="m165.93 38.696c-15.298-.923-32.548 4.768-40.799 18.913-4.814 8.151-2.131 14.026 2.865 19.021 4.996 4.996 10.871 7.679 19.021 2.865 14.033-8.186 19.846-25.32 18.913-40.799z"/><path d="m130.86 95.652c4.814-8.151 2.131-14.026-2.865-19.021-4.996-4.996-10.871-7.679-19.021-2.865-14.025 8.181-19.837 25.313-18.904 40.79 15.322.924 32.553-4.784 40.79-18.904z"/><path d="m127.995 76.63c-4.996-4.996-10.871-7.679-19.021-2.865-8.078-8.677-7.199-23.355-7.199-23.355s14.679-.879 23.355 7.199c-4.814 8.151-2.13 14.026 2.865 19.021z"/></g><circle cx="177.387" cy="89.754" fill="#fc5d3d" r="7.741"/><ellipse cx="137.949" cy="122.296" fill="#fc5d3d" rx="7.741" ry="7.741" transform="matrix(.383 -.924 .924 .383 -27.829 202.944)"/><ellipse cx="110.267" cy="26.377" fill="#fc5d3d" rx="7.741" ry="7.741" transform="matrix(.707 -.707 .707 .707 13.645 85.697)"/><path d="m235.145 90.998c-6.152 0-11.138 4.986-11.138 11.138l-.392 36.139c0 2.529-1.006 4.95-2.796 6.74l-34.732 34.741c-4.265 4.265-11.557 4.585-15.893.392-4.487-4.345-4.523-11.503-.134-15.902l14.085-14.085c3.926-3.917 4.149-10.301.321-14.308-3.962-4.14-10.497-4.167-14.495-.169l-29.791 29.773c-8.172 8.171-12.572 19.355-12.181 30.832v48.321h54.535v-24.22l59.759-59.759c2.288-2.297 3.579-5.395 3.579-8.636l.392-49.859c.001-6.152-4.976-11.129-11.119-11.138z" fill="#ffb69f"/><path d="m172.95 240.875c-1.381 0-2.5-1.119-2.5-2.5v-15.359c0-1.381 1.119-2.5 2.5-2.5s2.5 1.119 2.5 2.5v15.359c0 1.38-1.119 2.5-2.5 2.5zm.641-25.095c-.977-.976-.977-2.559 0-3.535l60.146-60.146c.025-.025.052-.053.052-.178l.392-49.803c.011-1.38 1.135-2.5 2.52-2.48 1.381.011 2.491 1.139 2.48 2.52l-.392 49.784c0 1.393-.538 2.711-1.514 3.69l-60.149 60.15c-.976.975-2.56.975-3.535-.002z" fill="#fbe0e2"/><path d="m20.855 90.998c6.152 0 11.138 4.986 11.138 11.138l.392 36.139c0 2.529 1.006 4.95 2.796 6.74l34.732 34.741c4.265 4.265 11.557 4.585 15.893.392 4.487-4.345 4.523-11.503.134-15.902l-14.085-14.085c-3.926-3.917-4.149-10.301-.321-14.308 3.962-4.14 10.497-4.167 14.495-.169l29.791 29.773c8.172 8.171 12.572 19.355 12.181 30.832v48.321h-54.536v-24.22l-59.759-59.759c-2.288-2.297-3.579-5.395-3.579-8.636l-.392-49.859c0-6.152 4.977-11.129 11.12-11.138z" fill="#ffb69f"/><path d="m118.416 240.875c-2.492 0-2.5-2.551-2.503-3.389l-.033-10.836c-.003-1.381 1.113-2.503 2.493-2.507h.007c1.378 0 2.497 1.115 2.5 2.493.017 6.493.035 11.485.036 11.714v.024c0 1.381-1.12 2.501-2.5 2.501zm-.059-21.744c-1.379 0-2.498-1.116-2.5-2.496-.037-20.439.055-21.846.055-21.751 0-7.782-3.148-15.393-8.636-20.88l-29.792-29.774c-.977-.976-.977-2.559-.001-3.535.976-.977 2.56-.978 3.535-.001l29.792 29.774c6.42 6.418 10.102 15.318 10.102 24.417 0 1-.094.048-.055 21.742.002 1.38-1.115 2.502-2.496 2.504-.001 0-.003 0-.004 0z" fill="#fbe0e2"/><path d="m74.564 97.496c-4.009-1.325-8.149-2.482-10.473-12.495-2.141 9.222-5.571 10.875-10.473 12.495 7.996 2.642 9.202 7.017 10.473 12.495 2.19-9.444 5.815-10.956 10.473-12.495z" fill="#f0c020"/><path d="m202.582 26.377c-4.009-1.325-8.149-2.482-10.473-12.495-2.141 9.222-5.571 10.875-10.473 12.495 7.996 2.642 9.202 7.017 10.473 12.495 2.191-9.443 5.815-10.956 10.473-12.495z" fill="#f0c020"/><path d="m215.55 58.504c-4.009-1.325-8.149-2.482-10.473-12.495-2.141 9.222-5.571 10.875-10.473 12.495 7.996 2.642 9.202 7.017 10.473 12.495 2.191-9.443 5.815-10.956 10.473-12.495z" fill="#f0c020"/><path d="m89.92 117.051c15.455.933 32.521-4.759 41.542-17.71 6.408 4.598 16.005 6.404 22.903 6.005 1.263-.076 2.271-1.083 2.346-2.346.036-.593.716-13.56-5.996-22.911 12.67-8.91 18.677-25.514 17.71-41.543-.074-1.242-1.08-2.269-2.345-2.345-15.436-.932-32.494 4.721-41.543 17.711-9.351-6.712-22.32-6.032-22.911-5.997-1.263.076-2.271 1.083-2.346 2.346-.036.593-.716 13.56 5.996 22.911-12.715 8.942-18.664 25.578-17.701 41.534.077 1.283 1.118 2.271 2.345 2.345zm8.91-29.704 14.92-.006c-5.33 5.33-15.839 15.839-21.163 21.163.415-6.927 2.272-14.584 6.243-21.157zm10.494 11.49v10.644c-4.397 1.506-8.934 2.306-13.204 2.56zm5 8.577v-13.577l13.587-13.586c3.745 4.578 3.94 8.81.798 14.13-.002.004-.005.008-.007.012-3.504 6.003-8.654 10.209-14.378 13.021zm19.699-12.372c1.657-3.433 2.367-7.205 1.431-10.953 3.764.946 7.505.234 10.953-1.431 4.346 5.782 5.179 13.779 5.312 17.695-3.916-.132-11.913-.966-17.696-5.311zm11.723-17.699c-5.319 3.143-9.55 2.947-14.13-.798l5.666-5.665 16.245-.007c-2.176 2.481-4.738 4.694-7.781 6.47zm17.667-32.595c-.415 6.914-2.264 14.556-6.222 21.123l-14.908.006c5.339-5.338 15.815-15.813 21.13-21.129zm-16.716 9.645v-10.617c4.393-1.503 8.924-2.311 13.183-2.566zm-5-8.552v13.552c-7.488 7.488-5.855 5.855-13.617 13.616-3.744-4.578-3.939-8.811-.791-14.141 3.508-6.011 8.673-10.214 14.408-13.027zm-19.73 12.378c-1.655 3.433-2.385 7.231-1.43 10.953-3.728-.917-7.479-.245-10.953 1.431-4.346-5.783-5.179-13.781-5.312-17.695 3.916.132 11.913.965 17.695 5.311zm-11.721 17.699c5.32-3.142 9.551-2.947 14.13.797l-5.623 5.623-16.248.007c2.166-2.464 4.715-4.662 7.741-6.427z"/><path d="m177.387 79.513c-5.647 0-10.241 4.594-10.241 10.241s4.594 10.241 10.241 10.241 10.241-4.594 10.241-10.241-4.594-10.241-10.241-10.241zm0 15.483c-2.89 0-5.241-2.351-5.241-5.241s2.351-5.241 5.241-5.241 5.241 2.351 5.241 5.241-2.351 5.241-5.241 5.241z"/><path d="m127.708 122.296c0 5.647 4.594 10.241 10.241 10.241s10.241-4.594 10.241-10.241-4.594-10.241-10.241-10.241-10.241 4.594-10.241 10.241zm15.482 0c0 2.89-2.351 5.241-5.241 5.241s-5.241-2.351-5.241-5.241 2.351-5.241 5.241-5.241 5.241 2.351 5.241 5.241z"/><path d="m100.026 26.377c0 5.647 4.594 10.241 10.241 10.241s10.241-4.594 10.241-10.241-4.594-10.241-10.241-10.241-10.241 4.594-10.241 10.241zm10.242-5.241c2.89 0 5.241 2.351 5.241 5.241s-2.351 5.241-5.241 5.241-5.241-2.351-5.241-5.241 2.35-5.241 5.241-5.241z"/><path d="m199 200.39-18.23 18.23c-.47.47-.74 1.11-.74 1.77v24.22c0 1.38 1.13 2.5 2.5 2.5 1.38 0 2.5-1.12 2.5-2.5v-23.19l17.5-17.49c.97-.98.97-2.56 0-3.54-.94-.94-2.59-.94-3.53 0z"/><path d="m206.07 193.32c-.975.975-.975 2.565 0 3.54.967.967 2.551.98 3.53 0 .965-.965 1.005-2.535 0-3.54-.94-.94-2.59-.94-3.53 0z"/><path d="m240.52 158.87-27.38 27.38c-.94.94-1.008 2.51 0 3.54.94.94 2.59.94 3.53 0 .01-.01.01-.01.01-.01l27.38-27.38c2.78-2.79 4.31-6.49 4.31-10.4l.39-49.85c0-7.51-6.1-13.64-13.61-13.65-7.51 0-13.63 6.1-13.64 13.61l-.4 36.14v.02c0 1.88-.73 3.65-2.06 4.98l-34.73 34.74c-3.287 3.307-9.046 3.594-12.39.36-3.491-3.388-3.494-8.946-.1-12.34l14.08-14.08c4.903-4.882 5.13-12.838.36-17.8-4.793-5.036-12.965-5.315-18.07-.21l-29.78 29.77c-4.657 4.646-8.201 10.24-10.42 16.556-2.147-6.111-5.611-11.757-10.41-16.556l-29.79-29.77c-5.092-5.092-13.258-4.836-18.07.2-4.731 4.943-4.592 12.879.36 17.81l14.08 14.08c3.424 3.446 3.36 8.982-.1 12.34-3.356 3.245-9.108 2.942-12.39-.36l-21.16-21.17c-.94-.94-2.59-.94-3.54 0-.97.98-.97 2.56 0 3.54l21.17 21.16c2.61 2.61 6.27 4.1 10.06 4.11 3.56 0 6.87-1.31 9.33-3.69 5.393-5.191 5.637-13.992.17-19.46l-14.09-14.09c-3.032-3.012-3.106-7.833-.28-10.81 3.02-3.144 7.938-3.112 10.92-.13l29.79 29.78c7.27 7.27 11.45 17.34 11.45 27.64v49.74c0 1.38 1.12 2.5 2.5 2.5s2.5-1.12 2.5-2.5c0-5.573 0-41.75 0-49.74 0-10.3 4.18-20.37 11.45-27.65l29.79-29.77c2.98-2.98 7.899-3.015 10.92.13 2.827 2.976 2.752 7.798-.28 10.81l-14.09 14.09c-5.474 5.474-5.227 14.246.17 19.46 5.363 5.21 14.215 4.745 19.4-.42l34.73-34.74c2.26-2.26 3.52-5.27 3.52-8.47v-.01l.4-36.14v-.02c.01-4.76 3.88-8.63 8.64-8.64 4.75 0 8.62 3.88 8.61 8.64l-.39 49.84c0 2.59-1.01 5.04-2.85 6.89z"/><path d="m39.92 149.75c-.971.95-1.001 2.528-.01 3.54 1.03 1.008 2.6.94 3.54 0 1.018-1.039.929-2.612 0-3.54-.94-.95-2.59-.94-3.53 0z"/><path d="m7.63 152.01c0 3.85 1.57 7.64 4.3 10.39l59.03 59.03.01 23.18c0 1.38 1.12 2.5 2.5 2.5 1.37 0 2.5-1.12 2.5-2.5 0 0 0-.01-.01-.01v-24.21c0-.67-.26-1.29-.73-1.77l-59.76-59.76c-1.83-1.84-2.84-4.28-2.84-6.87l-.4-49.87c0-4.75 3.87-8.62 8.63-8.62 4.75.01 8.62 3.88 8.63 8.64l.39 36.16c.01 2.82 1.02 5.57 2.85 7.74.85 1.01 2.5 1.15 3.52.29 1.069-.902 1.18-2.489.29-3.52-1.07-1.27-1.66-2.88-1.66-4.54l-.39-36.16c-.01-7.5-6.13-13.61-13.63-13.61-7.52.01-13.63 6.13-13.63 13.64z"/><path d="m61.655 84.436c-1.954 8.417-4.835 9.369-8.822 10.686-2.284.755-2.279 3.995 0 4.748 6.87 2.271 7.646 5.618 8.821 10.686.596 2.567 4.273 2.573 4.871 0 1.953-8.416 4.834-9.368 8.822-10.686 2.284-.755 2.279-3.995 0-4.748-3.806-1.262-6.817-2.05-8.822-10.687-.594-2.565-4.273-2.572-4.87.001zm6.815 13.085c-1.634 1.099-3.088 2.608-4.323 4.89-.99-1.76-2.407-3.424-4.567-4.854 1.717-1.125 3.238-2.688 4.521-5.101 1.303 2.451 2.813 4.003 4.369 5.065z"/><path d="m189.674 13.317c-1.954 8.417-4.835 9.369-8.822 10.686-2.284.755-2.279 3.995 0 4.748 6.87 2.271 7.646 5.618 8.821 10.686.596 2.567 4.273 2.573 4.871 0 1.953-8.416 4.834-9.368 8.822-10.686 2.284-.755 2.279-3.995 0-4.748-3.806-1.262-6.817-2.05-8.822-10.687-.595-2.565-4.274-2.572-4.87.001zm6.815 13.086c-1.634 1.099-3.088 2.608-4.323 4.89-.99-1.76-2.407-3.424-4.567-4.854 1.717-1.125 3.238-2.688 4.521-5.101 1.302 2.451 2.812 4.002 4.369 5.065z"/><path d="m216.334 56.13c-3.806-1.262-6.817-2.05-8.822-10.687-.595-2.566-4.273-2.573-4.87 0-1.954 8.417-4.835 9.369-8.822 10.686-2.284.755-2.279 3.995 0 4.748 6.87 2.271 7.646 5.618 8.821 10.686.596 2.567 4.273 2.573 4.871 0 1.953-8.416 4.834-9.368 8.822-10.686 2.284-.754 2.279-3.994 0-4.747zm-11.201 7.289c-.99-1.76-2.407-3.424-4.567-4.854 1.717-1.125 3.238-2.688 4.521-5.101 1.304 2.452 2.813 4.003 4.37 5.066-1.634 1.098-3.089 2.608-4.324 4.889z"/></g></svg>